<?xml version="1.0" encoding="UTF-8"?>
<svg id="Layer_2" data-name="Layer 2" xmlns="http://www.w3.org/2000/svg" viewBox="0 0 295.9 316.05">
  <defs>
    <style>
      .cls-1 {
        fill: #d4e1e8;
      }

      .cls-1, .cls-2, .cls-3 {
        stroke-width: 0px;
      }

      .cls-2 {
        fill: #f76c82;
      }

      .cls-4 {
        isolation: isolate;
      }

      .cls-3 {
        fill: #424852;
      }
    </style>
  </defs>
  <g id="Layer_2-2" data-name="Layer 2">
    <g>
      <path class="cls-1" d="m70.77,146.85c.05-1.05.75-1.94,1.75-2.24l28.91-8.53c2.03-.61,3.83,1.5,2.9,3.4l-12.49,26.17c-.62,1.32-2.26,1.78-3.49,1.03-6.64-4.06-16.78-2.85-22.66,4.93-1.09,1.44-3.28,1.32-4.15-.27-.16-.3-.32-.61-.46-.87-.53-.98-.32-2.19.48-2.96,6.32-6.04,8.84-13.06,9.19-20.65h0l.02-.02Z"/>
      <g>
        <path class="cls-2" d="m111.74,164.41l20.13,10.19c.98.5,1.64,1.44,1.8,2.51l3.01,22.36c.37,2.73,3.71,3.85,5.65,1.91l15.91-16c.77-.77,1.87-1.12,2.94-.93l22.2,4.04c2.71.5,4.81-2.33,3.55-4.77l-10.3-20.08c-.5-.98-.48-2.12.04-3.08l10.71-19.86c1.3-2.42-.73-5.29-3.46-4.85l-22.27,3.58c-1.09.18-2.17-.2-2.92-.98l-15.59-16.32c-1.91-2-5.26-.94-5.68,1.78l-3.47,22.29c-.16,1.09-.86,2.01-1.83,2.48l-20.33,9.78c-2.48,1.19-2.51,4.7-.05,5.95h-.02Z"/>
        <path class="cls-2" d="m98.27,117.49l2.44.16,64.33-20.18-7.25-6.06c-.84-.69-1.28-1.76-1.18-2.87l2.1-22.5c.25-2.74-2.74-4.6-5.08-3.12l-19.13,12.01c-.93.59-2.08.68-3.08.23l-20.74-8.96c-2.53-1.09-5.22,1.19-4.54,3.87l5.5,21.91c.27,1.07,0,2.19-.73,3.01l-14.93,16.96c-1.82,2.07-.48,5.33,2.28,5.5v.04Z"/>
      </g>
      <path class="cls-3" d="m89.55,185.56c1.43-2.74,1.71-5.86.78-8.82-.93-2.94-2.94-5.36-5.68-6.79-2.74-1.43-5.86-1.71-8.82-.78-6.07,1.91-9.48,8.41-7.57,14.5h0c1.55,4.93,6.13,8.11,11.05,8.11,1.14,0,2.3-.18,3.46-.53,2.94-.93,5.36-2.94,6.79-5.68Zm-2.99-1.57s-.02.04-.04.05c.04-.39.02-.8-.02-1.19-.07-.57-.18-1.16-.36-1.73-1.48-4.93-6.68-7.95-11.7-6.79-.04,0-.07,0-.11.04-.41.11-.78.23-1.16.41.96-1.07,2.19-1.92,3.67-2.39.8-.25,1.64-.37,2.46-.37,1.3,0,2.6.32,3.78.93,1.94,1.02,3.37,2.73,4.03,4.81s.46,4.31-.55,6.24Z"/>
      <path class="cls-3" d="m233.77,107.28c-7.18-1.14-13.9-4.65-18.94-9.89-1.69-1.76-4.2-2.42-6.52-1.69l-38.46,12.06c-.89.29-1.39,1.23-1.1,2.12s1.23,1.39,2.12,1.1l38.46-12.06c1.09-.34,2.26-.04,3.06.82,5.54,5.77,12.93,9.64,20.83,10.88,1.16.18,2.08.98,2.42,2.07l10.55,33.63c.34,1.09.04,2.26-.82,3.06-5.77,5.54-9.64,12.93-10.88,20.83-.18,1.16-.98,2.08-2.07,2.42l-38.46,12.06c-.89.29-1.39,1.23-1.1,2.12.23.71.89,1.18,1.6,1.18.16,0,.34-.02.5-.07l38.46-12.06c2.32-.73,3.99-2.69,4.38-5.11,1.14-7.18,4.65-13.9,9.89-18.92,1.76-1.69,2.42-4.2,1.69-6.52l-10.55-33.63c-.73-2.32-2.69-3.99-5.11-4.38l.05-.02Z"/>
      <path class="cls-3" d="m133.16,205.55c-.29-.89-1.23-1.39-2.12-1.1l-38.46,12.06c-1.09.34-2.26.04-3.06-.82-5.54-5.75-12.93-9.62-20.83-10.88-1.16-.18-2.08-.98-2.42-2.05l-10.55-33.63c-.34-1.09-.04-2.26.82-3.06,5.77-5.54,9.64-12.93,10.88-20.83.18-1.16.98-2.08,2.07-2.42l38.46-12.06c.89-.29,1.39-1.23,1.1-2.12s-1.23-1.39-2.12-1.1l-38.46,12.06c-2.32.73-3.99,2.69-4.38,5.11-1.14,7.18-4.65,13.9-9.89,18.94-1.76,1.69-2.42,4.2-1.69,6.52l10.55,33.63c.73,2.32,2.69,3.99,5.11,4.38,7.18,1.14,13.9,4.65,18.94,9.89,1.25,1.28,2.9,1.98,4.61,1.98.64,0,1.28-.09,1.91-.29l38.46-12.06c.89-.29,1.39-1.23,1.1-2.12l-.04-.02Z"/>
      <path class="cls-3" d="m31.24,148.15l4.95,5.83c.34.39.8.59,1.28.59.39,0,.77-.12,1.09-.41.71-.61.8-1.67.2-2.37l-4.95-5.83c-.87-1.03-.86-2.53.02-3.56,7.2-8.39,8.16-20.38,2.41-29.82-.71-1.16-.48-2.65.55-3.53L160.27,4.02c1.03-.87,2.53-.86,3.56.02,8.39,7.2,20.38,8.18,29.82,2.4,1.16-.71,2.65-.48,3.53.55l32.89,38.66c.87,1.03.86,2.53-.02,3.56-7.2,8.39-8.18,20.38-2.4,29.82.71,1.16.48,2.65-.55,3.53l-5.84,4.97c-.78-1.05-1.48-2.17-2.07-3.37-1.35-2.73-4.42-4.04-7.3-3.14l-154.69,48.53c-2.89.91-4.65,3.74-4.2,6.73,1.41,9.5-3.42,18.74-12.02,23-2.73,1.35-4.04,4.42-3.14,7.3l15.2,48.44c.91,2.89,3.74,4.65,6.73,4.2,9.5-1.41,18.74,3.42,23,12.03,1.07,2.14,3.21,3.42,5.47,3.42.61,0,1.23-.09,1.83-.29l154.69-48.53c2.89-.91,4.65-3.74,4.2-6.73-1.41-9.5,3.42-18.74,12.02-23h0c2.73-1.35,4.04-4.42,3.14-7.3l-15.2-48.44c-.91-2.89-3.74-4.65-6.73-4.2-7,1.03-13.88-1.34-18.72-6.09l5.83-4.95c2.3-1.96,2.81-5.26,1.25-7.86-4.99-8.19-4.15-18.58,2.08-25.87,1.98-2.3,2-5.65.04-7.95L199.77,4.83c-1.96-2.3-5.26-2.81-7.86-1.25-8.19,4.99-18.58,4.15-25.87-2.08-2.3-1.98-5.65-2-7.95-.04L34.62,106.49c-2.3,1.96-2.81,5.26-1.25,7.84,4.99,8.19,4.15,18.58-2.08,25.87-1.98,2.3-2,5.65-.04,7.95h-.02Zm207.65-48.35c1.25,0,2.49-.09,3.76-.29,1.35-.2,2.62.59,3.03,1.87l15.2,48.44c.41,1.28-.2,2.67-1.41,3.28-9.91,4.92-15.48,15.57-13.86,26.53.2,1.35-.59,2.62-1.87,3.03l-154.69,48.53c-1.28.41-2.67-.2-3.28-1.41-4.92-9.91-15.57-15.48-26.53-13.86-1.35.2-2.62-.59-3.03-1.87l-15.2-48.44c-.41-1.28.2-2.67,1.41-3.28,9.91-4.92,15.48-15.57,13.86-26.51-.2-1.35.59-2.62,1.87-3.03l154.69-48.53c1.28-.41,2.67.2,3.28,1.41,4.35,8.76,13.2,14.13,22.75,14.13h.02Z"/>
      <path class="cls-3" d="m162.73,18.9c.87-.73,2.07-.91,3.15-.45,7.36,3.15,15.68,3.81,23.43,1.89,1.14-.29,2.3.09,3.03.94l22.84,26.85c.73.87.91,2.07.46,3.12-2.07,4.83-3.1,10.15-2.98,15.41.02.93.77,1.66,1.69,1.66h.04c.93-.02,1.67-.8,1.66-1.73-.11-4.79.82-9.64,2.71-14,.96-2.24.59-4.77-1-6.63l-22.84-26.85c-1.57-1.85-4.03-2.64-6.41-2.03-7.05,1.75-14.61,1.14-21.29-1.71-2.26-.96-4.81-.59-6.66.98l-30.71,26.12c-.71.61-.8,1.67-.2,2.37s1.67.8,2.37.2l30.71-26.12h0v-.02Z"/>
      <path class="cls-3" d="m50.12,116.9c-.29-1.12.09-2.28.94-3.03l30.71-26.12c.71-.61.8-1.67.2-2.37-.61-.71-1.67-.8-2.37-.2l-30.71,26.12c-1.85,1.57-2.64,4.03-2.05,6.4.5,2.03.82,4.12.94,6.22.05.89.8,1.59,1.67,1.59h.09c.93-.05,1.64-.86,1.59-1.78-.12-2.3-.48-4.6-1.03-6.84l.02.02Z"/>
      <path class="cls-3" d="m178.89,41.79c-1.43,2.74-1.71,5.86-.78,8.82.93,2.94,2.94,5.36,5.68,6.79,1.67.87,3.49,1.32,5.34,1.32,1.16,0,2.33-.18,3.47-.53,6.07-1.91,9.48-8.41,7.57-14.5-1.91-6.07-8.41-9.48-14.5-7.57-2.94.93-5.36,2.94-6.79,5.68Zm17.48,9.19c.04-.39.02-.78-.02-1.19-.07-.57-.18-1.16-.36-1.73-1.48-4.93-6.68-7.95-11.7-6.79-.04,0-.07,0-.11.04-.41.11-.8.23-1.16.41.98-1.1,2.23-1.94,3.67-2.39.82-.25,1.64-.37,2.44-.37,3.49,0,6.72,2.24,7.82,5.74.68,2.17.41,4.42-.59,6.29Z"/>
      <path class="cls-3" d="m212.36,129.89c-1.43,2.74-1.71,5.86-.78,8.82.93,2.94,2.94,5.36,5.68,6.79,1.67.87,3.51,1.32,5.34,1.32,1.16,0,2.33-.18,3.47-.53,6.07-1.91,9.48-8.41,7.57-14.5-1.91-6.07-8.41-9.48-14.5-7.57-2.94.93-5.36,2.94-6.79,5.68Zm17.48,9.19c.04-.39.02-.78-.02-1.19-.07-.57-.18-1.16-.36-1.73-1.48-4.93-6.68-7.95-11.7-6.79-.04,0-.07,0-.11.04-.41.11-.8.23-1.16.41.98-1.1,2.23-1.94,3.67-2.39.82-.25,1.64-.37,2.44-.37,3.49,0,6.72,2.24,7.82,5.74.68,2.17.41,4.42-.59,6.29h0Z"/>
    </g>
    <g class="cls-4">
      <path class="cls-3" d="m65.95,299.6H19.58c-5.46,0-10.07-1.8-13.83-5.41-3.83-3.64-5.75-8.17-5.75-13.6v-22.02c0-5.35,1.92-9.86,5.75-13.54,3.79-3.64,8.4-5.46,13.83-5.46h46.38v14H19.58c-3.72,0-5.58,1.67-5.58,5.01v22.02c0,3.34,1.86,5.01,5.58,5.01h32.38v-9.11h-18.95v-13.94h32.95v37.04Z"/>
      <path class="cls-3" d="m149.6,299.6h-14v-36.59l-24.92,35.57-24.92-35.57v36.59h-14v-60.03h14.68l24.24,34.66,24.35-34.66h14.57v60.03Z"/>
      <path class="cls-2" d="m224.43,239.57l-30.5,60.03h-11.89l-30.67-60.03h15.59l21.11,41.03,20.77-41.03h15.59Z"/>
      <path class="cls-2" d="m291.18,294.19c-3.26,3.6-7.3,5.41-12.12,5.41h-51.78v-14h51.78c1.93,0,2.9-1.52,2.9-4.55s-.97-4.55-2.9-4.55h-37.67c-4.82,0-8.86-1.78-12.12-5.35-3.26-3.53-4.89-7.87-4.89-13.03s1.57-9.41,4.72-12.97c3.3-3.72,7.4-5.58,12.29-5.58h51.73v14h-51.73c-1.93,0-2.9,1.52-2.9,4.55s.97,4.44,2.9,4.44h37.67c4.82,0,8.86,1.8,12.12,5.41,3.15,3.57,4.72,7.93,4.72,13.09s-1.57,9.58-4.72,13.14Z"/>
    </g>
  </g>
</svg>