<?xml version="1.0" encoding="UTF-8"?>
<svg id="Layer_2" data-name="Layer 2" xmlns="http://www.w3.org/2000/svg" viewBox="0 0 548.51 170.2">
  <defs>
    <style>
      .cls-1 {
        fill: #d4e1e8;
      }

      .cls-1, .cls-2, .cls-3 {
        stroke-width: 0px;
      }

      .cls-2 {
        fill: #f76c82;
      }

      .cls-4 {
        isolation: isolate;
      }

      .cls-3 {
        fill: #424852;
      }
    </style>
  </defs>
  <g id="Layer_2-2" data-name="Layer 2">
    <path class="cls-3" d="m122.5,69.55l-51.14,100.65h-19.94L0,69.55h26.14l35.4,68.79,34.82-68.79s26.14,0,26.14,0Z"/>
    <path class="cls-3" d="m232.6,93.02h-83.76v15.07h78.33v23.37h-78.33v15.26h83.76v23.47h-107.23v-100.65h107.23v23.47h0Z"/>
    <path class="cls-2" d="m351.37,161.13c-5.47,6.04-12.24,9.06-20.32,9.06h-86.82v-23.47h86.82c3.24,0,4.87-2.54,4.87-7.63s-1.62-7.63-4.87-7.63h-63.16c-8.08,0-14.85-2.99-20.32-8.97-5.47-5.92-8.2-13.2-8.2-21.85s2.64-15.77,7.92-21.75c5.53-6.23,12.4-9.35,20.61-9.35h86.72v23.47h-86.72c-3.24,0-4.87,2.54-4.87,7.63s1.62,7.44,4.87,7.44h63.16c8.08,0,14.85,3.02,20.32,9.06,5.28,5.98,7.92,13.29,7.92,21.94s-2.64,16.06-7.92,22.04h0Z"/>
    <path class="cls-2" d="m490.85,124.67v13.66c0,9.1-3.24,16.69-9.73,22.8-6.3,6.04-14,9.06-23.09,9.06h-59.05c-9.16,0-16.89-3.02-23.18-9.06-6.43-6.11-9.63-13.71-9.63-22.8v-36.92c0-8.96,3.21-16.53,9.63-22.7,6.36-6.11,14.09-9.15,23.18-9.15h16.12c.32,1.97-.22,4.02-1.58,5.6-2.86,3.34-2.88,8.19-.03,11.53l2.65,3.11c-.33,1.02-.47,2.11-.4,3.22h-16.75c-6.24,0-9.35,2.8-9.35,8.39v36.92c0,5.6,3.12,8.39,9.35,8.39h59.05c6.24,0,9.35-2.79,9.35-8.39v-6.3l23.47-7.36h-.01Z"/>
    <path class="cls-1" d="m439.82,82.43c.03-.59.42-1.09.98-1.26l16.23-4.79c1.14-.34,2.15.84,1.63,1.91l-7.01,14.69c-.35.74-1.27,1-1.96.58-3.73-2.28-9.42-1.6-12.72,2.77-.61.81-1.84.74-2.33-.15-.09-.17-.18-.34-.26-.49-.3-.55-.18-1.23.27-1.66,3.55-3.39,4.96-7.33,5.16-11.59h0Z"/>
    <g>
      <path class="cls-2" d="m462.82,92.29l11.3,5.72c.55.28.92.81,1.01,1.41l1.69,12.55c.21,1.53,2.08,2.16,3.17,1.07l8.93-8.98c.43-.43,1.05-.63,1.65-.52l12.46,2.27c1.52.28,2.7-1.31,1.99-2.68l-5.78-11.27c-.28-.55-.27-1.19.02-1.73l6.01-11.15c.73-1.36-.41-2.97-1.94-2.72l-12.5,2.01c-.61.1-1.22-.11-1.64-.55l-8.75-9.16c-1.07-1.12-2.95-.53-3.19,1l-1.95,12.51c-.09.61-.48,1.13-1.03,1.39l-11.41,5.49c-1.39.67-1.41,2.64-.03,3.34h0Z"/>
      <path class="cls-2" d="m455.26,65.95l1.37.09,36.11-11.33-4.07-3.4c-.47-.39-.72-.99-.66-1.61l1.18-12.63c.14-1.54-1.54-2.58-2.85-1.75l-10.74,6.74c-.52.33-1.17.38-1.73.13l-11.64-5.03c-1.42-.61-2.93.67-2.55,2.17l3.09,12.3c.15.6,0,1.23-.41,1.69l-8.38,9.52c-1.02,1.16-.27,2.99,1.28,3.09v.02Z"/>
    </g>
    <path class="cls-3" d="m450.36,104.16c.8-1.54.96-3.29.44-4.95-.52-1.65-1.65-3.01-3.19-3.81-1.54-.8-3.29-.96-4.95-.44-3.41,1.07-5.32,4.72-4.25,8.14h0c.87,2.77,3.44,4.55,6.2,4.55.64,0,1.29-.1,1.94-.3,1.65-.52,3.01-1.65,3.81-3.19Zm-1.68-.88s-.01.02-.02.03c.02-.22.01-.45-.01-.67-.04-.32-.1-.65-.2-.97-.83-2.77-3.75-4.46-6.57-3.81-.02,0-.04,0-.06.02-.23.06-.44.13-.65.23.54-.6,1.23-1.08,2.06-1.34.45-.14.92-.21,1.38-.21.73,0,1.46.18,2.12.52,1.09.57,1.89,1.53,2.26,2.7s.26,2.42-.31,3.5Z"/>
    <path class="cls-3" d="m531.32,60.22c-4.03-.64-7.8-2.61-10.63-5.55-.95-.99-2.36-1.36-3.66-.95l-21.59,6.77c-.5.16-.78.69-.62,1.19s.69.78,1.19.62l21.59-6.77c.61-.19,1.27-.02,1.72.46,3.11,3.24,7.26,5.41,11.69,6.11.65.1,1.17.55,1.36,1.16l5.92,18.88c.19.61.02,1.27-.46,1.72-3.24,3.11-5.41,7.26-6.11,11.69-.1.65-.55,1.17-1.16,1.36l-21.59,6.77c-.5.16-.78.69-.62,1.19.13.4.5.66.9.66.09,0,.19-.01.28-.04l21.59-6.77c1.3-.41,2.24-1.51,2.46-2.87.64-4.03,2.61-7.8,5.55-10.62.99-.95,1.36-2.36.95-3.66l-5.92-18.88c-.41-1.3-1.51-2.24-2.87-2.46h.03Z"/>
    <path class="cls-3" d="m474.84,115.38c-.16-.5-.69-.78-1.19-.62l-21.59,6.77c-.61.19-1.27.02-1.72-.46-3.11-3.23-7.26-5.4-11.69-6.11-.65-.1-1.17-.55-1.36-1.15l-5.92-18.88c-.19-.61-.02-1.27.46-1.72,3.24-3.11,5.41-7.26,6.11-11.69.1-.65.55-1.17,1.16-1.36l21.59-6.77c.5-.16.78-.69.62-1.19s-.69-.78-1.19-.62l-21.59,6.77c-1.3.41-2.24,1.51-2.46,2.87-.64,4.03-2.61,7.8-5.55,10.63-.99.95-1.36,2.36-.95,3.66l5.92,18.88c.41,1.3,1.51,2.24,2.87,2.46,4.03.64,7.8,2.61,10.63,5.55.7.72,1.63,1.11,2.59,1.11.36,0,.72-.05,1.07-.16l21.59-6.77c.5-.16.78-.69.62-1.19h-.02Z"/>
    <path class="cls-3" d="m417.63,83.16l2.78,3.27c.19.22.45.33.72.33.22,0,.43-.07.61-.23.4-.34.45-.94.11-1.33l-2.78-3.27c-.49-.58-.48-1.42.01-2,4.04-4.71,4.58-11.44,1.35-16.74-.4-.65-.27-1.49.31-1.98L490.06,2.26c.58-.49,1.42-.48,2,0,4.71,4.04,11.44,4.59,16.74,1.35.65-.4,1.49-.27,1.98.31l18.46,21.7c.49.58.48,1.42-.01,2-4.04,4.71-4.59,11.44-1.35,16.74.4.65.27,1.49-.31,1.98l-3.28,2.79c-.44-.59-.83-1.22-1.16-1.89-.76-1.53-2.48-2.27-4.1-1.76l-86.83,27.24c-1.62.51-2.61,2.1-2.36,3.78.79,5.33-1.92,10.52-6.75,12.91-1.53.76-2.27,2.48-1.76,4.1l8.53,27.19c.51,1.62,2.1,2.61,3.78,2.36,5.33-.79,10.52,1.92,12.91,6.75.6,1.2,1.8,1.92,3.07,1.92.34,0,.69-.05,1.03-.16l86.83-27.24c1.62-.51,2.61-2.1,2.36-3.78-.79-5.33,1.92-10.52,6.75-12.91h0c1.53-.76,2.27-2.48,1.76-4.1l-8.53-27.19c-.51-1.62-2.1-2.61-3.78-2.36-3.93.58-7.79-.75-10.51-3.42l3.27-2.78c1.29-1.1,1.58-2.95.7-4.41-2.8-4.6-2.33-10.43,1.17-14.52,1.11-1.29,1.12-3.17.02-4.46l-18.46-21.7c-1.1-1.29-2.95-1.58-4.41-.7-4.6,2.8-10.43,2.33-14.52-1.17-1.29-1.11-3.17-1.12-4.46-.02l-69.31,58.96c-1.29,1.1-1.58,2.95-.7,4.4,2.8,4.6,2.33,10.43-1.17,14.52-1.11,1.29-1.12,3.17-.02,4.46h0Zm116.56-27.14c.7,0,1.4-.05,2.11-.16.76-.11,1.47.33,1.7,1.05l8.53,27.19c.23.72-.11,1.5-.79,1.84-5.56,2.76-8.69,8.74-7.78,14.89.11.76-.33,1.47-1.05,1.7l-86.83,27.24c-.72.23-1.5-.11-1.84-.79-2.76-5.56-8.74-8.69-14.89-7.78-.76.11-1.47-.33-1.7-1.05l-8.53-27.19c-.23-.72.11-1.5.79-1.84,5.56-2.76,8.69-8.74,7.78-14.88-.11-.76.33-1.47,1.05-1.7l86.83-27.24c.72-.23,1.5.11,1.84.79,2.44,4.92,7.41,7.93,12.77,7.93h0Z"/>
    <path class="cls-3" d="m491.44,10.61c.49-.41,1.16-.51,1.77-.25,4.13,1.77,8.8,2.14,13.15,1.06.64-.16,1.29.05,1.7.53l12.82,15.07c.41.49.51,1.16.26,1.75-1.16,2.71-1.74,5.7-1.67,8.65.01.52.43.93.95.93h.02c.52,0,.94-.45.93-.97-.06-2.69.46-5.41,1.52-7.86.54-1.26.33-2.68-.56-3.72l-12.82-15.07c-.88-1.04-2.26-1.48-3.6-1.14-3.96.98-8.2.64-11.95-.96-1.27-.54-2.7-.33-3.74.55l-17.24,14.66c-.4.34-.45.94-.11,1.33s.94.45,1.33.11l17.24-14.66h0Z"/>
    <path class="cls-3" d="m428.23,65.62c-.16-.63.05-1.28.53-1.7l17.24-14.66c.4-.34.45-.94.11-1.33-.34-.4-.94-.45-1.33-.11l-17.24,14.66c-1.04.88-1.48,2.26-1.15,3.59.28,1.14.46,2.31.53,3.49.03.5.45.89.94.89h.05c.52-.03.92-.48.89-1-.07-1.29-.27-2.58-.58-3.84h0Z"/>
    <path class="cls-3" d="m500.51,23.46c-.8,1.54-.96,3.29-.44,4.95.52,1.65,1.65,3.01,3.19,3.81.94.49,1.96.74,3,.74.65,0,1.31-.1,1.95-.3,3.41-1.07,5.32-4.72,4.25-8.14-1.07-3.41-4.72-5.32-8.14-4.25-1.65.52-3.01,1.65-3.81,3.19Zm9.81,5.16c.02-.22.01-.44-.01-.67-.04-.32-.1-.65-.2-.97-.83-2.77-3.75-4.46-6.57-3.81-.02,0-.04,0-.06.02-.23.06-.45.13-.65.23.55-.62,1.25-1.09,2.06-1.34.46-.14.92-.21,1.37-.21,1.96,0,3.77,1.26,4.39,3.22.38,1.22.23,2.48-.33,3.53Z"/>
    <path class="cls-3" d="m519.3,72.91c-.8,1.54-.96,3.29-.44,4.95.52,1.65,1.65,3.01,3.19,3.81.94.49,1.97.74,3,.74.65,0,1.31-.1,1.95-.3,3.41-1.07,5.32-4.72,4.25-8.14-1.07-3.41-4.72-5.32-8.14-4.25-1.65.52-3.01,1.65-3.81,3.19Zm9.81,5.16c.02-.22.01-.44-.01-.67-.04-.32-.1-.65-.2-.97-.83-2.77-3.75-4.46-6.57-3.81-.02,0-.04,0-.06.02-.23.06-.45.13-.65.23.55-.62,1.25-1.09,2.06-1.34.46-.14.92-.21,1.37-.21,1.96,0,3.77,1.26,4.39,3.22.38,1.22.23,2.48-.33,3.53h0Z"/>
    <g class="cls-4">
      <g class="cls-4">
        <path class="cls-3" d="m238.55,66.05h-18.15c-2.14,0-3.94-.71-5.41-2.12-1.5-1.42-2.25-3.2-2.25-5.32v-8.62c0-2.09.75-3.86,2.25-5.3,1.48-1.42,3.29-2.14,5.41-2.14h18.15v5.48h-18.15c-1.46,0-2.18.65-2.18,1.96v8.62c0,1.31.73,1.96,2.18,1.96h12.67v-3.56h-7.41v-5.46h12.89v14.5Z"/>
        <path class="cls-3" d="m269.92,58.61c0,2.12-.76,3.9-2.27,5.32-1.47,1.41-3.27,2.12-5.39,2.12h-13.78c-2.14,0-3.94-.71-5.41-2.12-1.5-1.42-2.25-3.2-2.25-5.32v-8.62c0-2.09.75-3.86,2.25-5.3,1.48-1.42,3.29-2.14,5.41-2.14h13.78c2.11,0,3.9.71,5.39,2.14,1.51,1.44,2.27,3.21,2.27,5.3v8.62Zm-5.48-8.62c0-1.31-.73-1.96-2.18-1.96h-13.78c-1.46,0-2.18.65-2.18,1.96v8.62c0,1.31.73,1.96,2.18,1.96h13.78c1.45,0,2.18-.65,2.18-1.96v-8.62Z"/>
        <path class="cls-3" d="m293.39,66.05h-21.2v-23.49h5.48v18.01h15.72v5.48Z"/>
        <path class="cls-3" d="m320.71,58.61c0,2.11-.74,3.88-2.23,5.32-1.46,1.41-3.25,2.12-5.39,2.12h-18.1v-23.49h18.1c2.11,0,3.9.72,5.39,2.16,1.48,1.45,2.23,3.21,2.23,5.28v8.62Zm-20.24-10.58v12.54h12.62c1.4,0,2.09-.65,2.09-1.96v-8.62c0-1.31-.7-1.96-2.09-1.96h-12.62Z"/>
        <path class="cls-3" d="m353.44,66.05h-5.48v-14.32l-9.75,13.92-9.75-13.92v14.32h-5.48v-23.49h5.74l9.49,13.56,9.53-13.56h5.7v23.49Z"/>
        <path class="cls-3" d="m384.48,66.05h-5.46v-7.48h-17.83v7.48h-5.48v-16.23c0-1.99.61-3.68,1.83-5.08,1.26-1.45,2.86-2.18,4.79-2.18h15.5c1.93,0,3.53.73,4.81,2.18,1.23,1.4,1.85,3.09,1.85,5.08v16.23Zm-23.29-12.96h17.83v-3.27c0-1.19-.4-1.78-1.2-1.78h-15.5c-.76,0-1.14.59-1.14,1.78v3.27Z"/>
        <path class="cls-3" d="m411.78,66.05h-5.46l-14.09-15.83v15.83h-5.48v-23.49h5.48l14.09,15.7v-15.7h5.46v23.49Z"/>
      </g>
    </g>
  </g>
</svg>